<svg width="52" height="50" viewBox="0 0 52 50" fill="none" xmlns="http://www.w3.org/2000/svg">
<path d="M51.1125 25C51.1125 36.6345 43.1214 46.409 32.2973 49.2002C30.2719 49.7209 28.1492 50 25.959 50C25.5188 50 25.0813 49.9893 24.6438 49.9678C11.3595 49.2888 0.800049 38.3709 0.800049 25C0.800049 11.1943 12.0616 0 25.9563 0C39.851 0 51.1125 11.1943 51.1125 25Z" fill="#395398"/>
<path d="M29.6105 16.211V20.7993H36.7747L35.8416 27.9881H29.6105V43.2196C27.6337 43.7276 25.5619 44 23.4243 44C22.9947 44 22.5677 43.9895 22.1407 43.9686V27.9881H15.8938V20.7993H22.1407V15.5013C22.1407 9.34956 25.9231 6 31.4451 6C34.0914 6 36.3635 6.19642 37.0251 6.28284V12.7122L33.1952 12.7148C30.1931 12.7122 29.6105 14.1316 29.6105 16.211Z" fill="white"/>
</svg>
