<svg width="27" height="95" viewBox="0 0 27 95" fill="none" xmlns="http://www.w3.org/2000/svg">
<path d="M1.78344 92.1117C0.684028 91.992 -0.10714 91.0063 0.016311 89.91L2.0281 72.0446C2.15155 70.9483 3.14288 70.1566 4.24229 70.2762C5.34169 70.3959 6.13286 71.3816 6.00941 72.4779L4.22116 88.3582L20.1464 90.0914C21.2458 90.211 22.037 91.1967 21.9135 92.293C21.7901 93.3893 20.7988 94.1811 19.6993 94.0614L1.78344 92.1117ZM0.757423 88.5698C1.84704 87.6996 2.88852 86.8222 3.88349 85.9387L6.54313 88.9171C5.49465 89.8482 4.39957 90.7705 3.25651 91.6834L0.757423 88.5698ZM9.63567 80.2041C11.5052 78.0969 13.1431 75.965 14.5696 73.8188L17.9073 76.0173C16.3749 78.323 14.6226 80.6022 12.6331 82.8447L9.63567 80.2041ZM18.4909 66.7973C19.6374 64.2938 20.5333 61.7803 21.2072 59.2713L25.077 60.2929C24.3461 63.014 23.3751 65.7376 22.1345 68.4465L18.4909 66.7973ZM22.6292 51.3951C22.8887 48.6984 22.9223 46.02 22.7638 43.3786L26.763 43.1278C26.9331 45.9633 26.8977 48.8493 26.6172 51.7642L22.6292 51.3951ZM21.7088 35.3972C21.1667 32.7238 20.4516 30.1145 19.6037 27.5922L23.4028 26.3126C24.2993 28.9793 25.0587 31.7478 25.6358 34.5942L21.7088 35.3972ZM16.5881 20.0644C15.4053 17.5257 14.1154 15.1251 12.7738 12.8934L16.2119 10.8326C17.6221 13.1782 18.9781 15.7019 20.2225 18.3728L16.5881 20.0644ZM8.22871 6.17918C7.37037 5.05292 6.51758 4.007 5.68391 3.04845L8.71451 0.427015C9.60656 1.45269 10.5134 2.56524 11.4216 3.75702L8.22871 6.17918Z" fill="#BDBDBD"/>
</svg>
